<?xml version="1.0" encoding="UTF-8"?>
<!DOCTYPE svg PUBLIC "-//W3C//DTD SVG 1.1//EN" "http://www.w3.org/Graphics/SVG/1.1/DTD/svg11.dtd">
<!-- Creator: CorelDRAW X7 -->
<svg xmlns="http://www.w3.org/2000/svg" xml:space="preserve" width="7.59087in" height="6.52784in" version="1.1" style="shape-rendering:geometricPrecision; text-rendering:geometricPrecision; image-rendering:optimizeQuality; fill-rule:evenodd; clip-rule:evenodd"
viewBox="0 0 7926 6816"
 xmlns:xlink="http://www.w3.org/1999/xlink">
 <defs>
  <style type="text/css">
   <![CDATA[
    .fil0 {fill:#52658C}
   ]]>
  </style>
 </defs>
 <g id="Layer_x0020_1">
  <metadata id="CorelCorpID_0Corel-Layer"/>
  <g id="_2168105435552">
   <path class="fil0" d="M188 2420c0,0 901,387 1237,2134 0,0 918,414 1635,336 0,0 -1131,-224 -1344,-840 0,0 220,105 415,53 -598,-310 -1136,-1590 -1943,-1683z"/>
   <path class="fil0" d="M2637 4951c0,0 -733,-28 -862,-134 0,0 241,420 -257,487 0,0 5,689 -336,1126 0,0 677,-857 1455,-1479z"/>
   <path class="fil0" d="M1243 6816c0,0 1123,-2032 4457,-1848 2286,126 1736,-3292 818,-3695 425,1310 -1147,3110 -2739,2974 -2534,-218 -2024,-2190 -3779,-2101 1249,111 896,789 2275,1960 741,630 2822,488 3459,-325l45 414c0,0 168,-638 459,-817 0,0 112,314 34,582 0,0 291,-212 380,-952l224 157c0,0 -44,-269 67,-582 0,0 742,2058 -1979,2204 -2722,145 -3721,2029 -3721,2029z"/>
   <path class="fil0" d="M7111 1886c0,0 172,167 160,448 0,0 504,151 218,238 -285,87 320,84 423,47 104,-36 -395,-576 -801,-733z"/>
   <path class="fil0" d="M5824 3025c0,0 -418,87 -695,-372 0,0 34,308 -11,358 0,0 -582,51 -846,507 0,0 1157,-666 1053,-53 0,0 -33,106 95,45 129,-62 440,-314 474,-406 33,-93 -14,-109 -70,-79z"/>
   <path class="fil0" d="M4858 2510c0,0 -751,224 -879,1025 0,0 -124,-599 688,-1114 0,0 -145,-572 95,-1182 0,0 -126,523 96,1271z"/>
   <path class="fil0" d="M6162 1127c0,0 -459,-358 -840,-364 0,0 -145,-106 79,-140 224,-33 812,-621 1472,-621 0,0 219,-68 -184,677 0,0 -65,95 -65,-33l67 -125 42 -344c0,0 -764,-65 -545,898 0,0 22,72 -26,52z"/>
   <path class="fil0" d="M4850 1503c0,0 28,-70 70,6 42,75 14,417 168,868 0,0 -14,98 -101,47 -87,-50 -146,-448 -137,-921z"/>
   <path class="fil0" d="M5102 1534c17,-42 45,-20 53,5 8,26 168,933 235,941l-64 101c0,0 -112,-171 -149,-269 -36,-98 -75,-778 -75,-778z"/>
   <path class="fil0" d="M2534 1187c0,0 37,417 938,425 -130,-225 -544,-121 -938,-425z"/>
   <path class="fil0" d="M3234 2301c395,507 853,245 1184,239 45,1 75,-74 6,-88 -68,-14 -708,174 -392,-210 317,-383 -97,-547 -204,-504 327,61 407,668 -594,563z"/>
   <path class="fil0" d="M3358 1387c0,0 -563,81 -1114,-650 0,0 307,38 680,-31 2780,-512 3967,919 3169,1980 0,0 286,-924 51,-571 0,0 -111,64 -56,-51 193,-246 -73,-952 -202,-229 0,0 -59,246 -84,-17 -142,-1492 -3516,-1225 -2444,-431z"/>
   <path class="fil0" d="M3498 1017c0,0 252,-249 417,-130 0,0 262,21 17,85 -245,65 15,101 -434,45z"/>
  </g>
 </g>
</svg>
